<?xml version="1.0" encoding="UTF-8"?>
<svg id="GAMES" xmlns="http://www.w3.org/2000/svg" viewBox="0 0 512 512">
  <defs>
    <style>
      .cls-1 {
        fill: #d2d2d2;
        stroke-width: 0px;
      }

      .cls-2 {
        fill: none;
        stroke: #d2d2d2;
        stroke-linecap: round;
        stroke-linejoin: round;
        stroke-width: 10px;
      }
    </style>
  </defs>
  <g id="SUDOKU">
    <line class="cls-2" x1="175.73" y1="31" x2="175.73" y2="481"/>
    <line class="cls-2" x1="336.27" y1="31" x2="336.27" y2="481"/>
    <line class="cls-2" x1="31" y1="175.73" x2="481" y2="175.73"/>
    <line class="cls-2" x1="31" y1="336.27" x2="481" y2="336.27"/>
    <path class="cls-1" d="m89.95,72.19h-11.95c-.83,0-1.5-.67-1.5-1.5v-7.16c0-.81.65-1.48,1.47-1.5,10.56-.2,14.73-2.75,17.8-10.47.23-.57.77-.95,1.38-.95h7.1c.83,0,1.5.67,1.5,1.5v88c0,.83-.67,1.5-1.5,1.5h-11.3c-.83,0-1.5-.67-1.5-1.5v-66.42c0-.83-.67-1.5-1.5-1.5Z"/>
    <path class="cls-1" d="m234.68,131.73c0-13,3.64-20.93,14.3-32.11,10.92-11.57,14.04-18.46,14.04-26.91s-2.86-10.4-7.41-10.4-7.41,2.47-7.41,8.97v8.25c0,.83-.67,1.5-1.5,1.5h-10.52c-.83,0-1.5-.67-1.5-1.5v-7.34c0-14.56,7.28-22.88,21.32-22.88s21.32,8.32,21.32,22.88c0,10.79-4.42,20.41-17.68,34.45-8.58,9.1-10.79,13.65-10.79,20.02v.45c0,.83.67,1.5,1.5,1.5h24.17c.83,0,1.5.67,1.5,1.5v10c0,.83-.67,1.5-1.5,1.5h-38.34c-.83,0-1.5-.67-1.5-1.5v-8.38Z"/>
    <path class="cls-1" d="m394.22,118.99v-5.91c0-.83.67-1.5,1.5-1.5h10.52c.83,0,1.5.67,1.5,1.5v6.56c0,6.5,2.86,8.97,7.41,8.97s7.41-2.21,7.41-10.27v-7.41c0-8.45-2.86-11.57-9.36-11.57h-3.31c-.83,0-1.5-.67-1.5-1.5v-10c0-.83.67-1.5,1.5-1.5h3.7c5.33,0,8.58-2.34,8.58-9.62v-6.63c0-6.5-2.99-9.1-7.15-9.1s-6.89,2.47-6.89,8.45v4.48c0,.83-.67,1.5-1.5,1.5h-10.52c-.83,0-1.5-.67-1.5-1.5v-3.31c0-14.56,7.28-22.62,20.93-22.62s20.93,7.93,20.93,22.49v3.25c0,9.75-3.12,15.73-10.14,18.33v.26c7.67,2.86,10.53,9.49,10.53,18.72v8.06c0,14.56-7.28,22.49-21.32,22.49s-21.32-8.06-21.32-22.62Z"/>
    <path class="cls-1" d="m96.42,284.34h-24.3c-.83,0-1.5-.67-1.5-1.5v-11.2c0-.2.04-.4.12-.58l25.5-60.3c.23-.56.78-.92,1.38-.92h13.11c.83,0,1.5.67,1.5,1.5v58.49c0,.83.67,1.5,1.5,1.5h3.76c.83,0,1.5.67,1.5,1.5v10c0,.83-.67,1.5-1.5,1.5h-3.76c-.83,0-1.5.67-1.5,1.5v13.51c0,.83-.67,1.5-1.5,1.5h-11.3c-.83,0-1.5-.67-1.5-1.5v-13.51c0-.83-.67-1.5-1.5-1.5Zm0-13c.83,0,1.5-.67,1.5-1.5v-33.99h-.26l-13.23,33.44c-.39.98.34,2.05,1.39,2.05h10.59Z"/>
    <path class="cls-1" d="m234.68,279.27v-5.65c0-.83.67-1.5,1.5-1.5h10.52c.83,0,1.5.67,1.5,1.5v6.69c0,6.5,2.86,8.84,7.41,8.84s7.41-2.34,7.41-8.84v-20.41c0-6.5-2.86-8.97-7.41-8.97s-7.41,2.47-7.41,8.97v.78h-11.94c-.86,0-1.54-.72-1.5-1.58l2.45-47.83c.04-.8.7-1.42,1.5-1.42h34.78c.83,0,1.5.67,1.5,1.5v10c0,.83-.67,1.5-1.5,1.5h-22.04c-.8,0-1.45.62-1.5,1.42l-1.09,20.29h.26c2.6-4.29,6.63-6.63,12.35-6.63,10.53,0,15.86,7.41,15.86,20.8v20.54c0,14.56-7.28,22.88-21.32,22.88s-21.32-8.32-21.32-22.88Z"/>
    <path class="cls-1" d="m393.83,279.27v-47.06c0-15.34,7.02-23.66,21.84-23.66,14.04,0,21.32,8.32,21.32,22.88v.19c0,.83-.67,1.5-1.5,1.5h-10.52c-.83,0-1.5-.67-1.5-1.5v-1.1c0-6.5-2.86-8.97-7.41-8.97-5.07,0-7.93,2.47-7.93,11.18v17.42h.26c2.47-5.2,6.63-7.93,13-7.93,10.53,0,15.86,7.41,15.86,20.8v16.25c0,14.56-7.67,22.88-21.71,22.88s-21.71-8.32-21.71-22.88Zm29.12,1.04v-16.12c0-6.11-2.47-8.97-7.41-8.97s-7.41,2.86-7.41,8.97v16.12c0,5.98,2.47,8.84,7.41,8.84s7.41-2.86,7.41-8.84Z"/>
    <path class="cls-1" d="m100.21,384.69h-25.36c-.83,0-1.5-.67-1.5-1.5v-10c0-.83.67-1.5,1.5-1.5h39.9c.83,0,1.5.67,1.5,1.5v10.77c0,.14-.02.28-.06.41l-21.99,77.23c-.18.64-.77,1.09-1.44,1.09h-11.43c-1,0-1.72-.96-1.44-1.92l21.75-74.16c.28-.96-.44-1.92-1.44-1.92Z"/>
    <path class="cls-1" d="m233.64,440.2v-8.06c0-8.71,2.6-15.08,9.36-18.59v-.26c-5.98-3.25-8.84-8.97-8.84-17.94v-3.77c0-14.56,7.93-22.49,21.84-22.49s21.84,7.93,21.84,22.49v3.77c0,8.97-2.99,14.69-8.84,17.94v.26c6.76,3.51,9.36,9.88,9.36,18.59v8.06c0,14.56-7.93,22.49-22.36,22.49s-22.36-7.93-22.36-22.49Zm30.42-.78v-8.71c0-6.89-2.73-10.27-8.06-10.27s-8.06,3.38-8.06,10.27v8.71c0,6.89,2.73,10.27,8.06,10.27s8.06-3.38,8.06-10.27Zm-.52-41.08v-7.15c0-5.98-2.6-9.1-7.54-9.1s-7.54,3.12-7.54,9.1v7.15c0,5.98,2.6,9.1,7.54,9.1s7.54-3.12,7.54-9.1Z"/>
    <path class="cls-1" d="m394.09,439.81v-.19c0-.83.67-1.5,1.5-1.5h10.52c.83,0,1.5.67,1.5,1.5v1.1c0,6.5,2.86,8.97,7.41,8.97,5.07,0,7.93-2.47,7.93-11.18v-17.42h-.26c-2.47,5.2-6.63,7.93-13,7.93-10.53,0-15.86-7.41-15.86-20.8v-16.25c0-14.56,7.67-22.88,21.71-22.88s21.71,8.32,21.71,22.88v47.06c0,15.34-7.02,23.66-21.84,23.66-14.04,0-21.32-8.32-21.32-22.88Zm28.86-32.76v-16.12c0-5.98-2.47-8.84-7.41-8.84s-7.41,2.86-7.41,8.84v16.12c0,6.11,2.47,8.97,7.41,8.97s7.41-2.86,7.41-8.97Z"/>
  </g>
</svg>