<?xml version="1.0" encoding="UTF-8"?>
<svg id="Layer_1" data-name="Layer 1" xmlns="http://www.w3.org/2000/svg" viewBox="0 0 255.12 255.12">
  <defs>
    <style>
      .cls-1 {
        fill: #f7f7f7;
      }
    </style>
  </defs>
  <path class="cls-1" d="M88.63,244.14c2.71,0,4.9-2.19,4.9-4.9v-67.85h67.65v67.85c.12,2.71,2.41,4.81,5.12,4.69,2.54-.11,4.58-2.15,4.69-4.69v-67.85h67.85c2.71-.12,4.81-2.41,4.69-5.12-.11-2.54-2.15-4.58-4.69-4.69h-67.85V93.93h67.85c2.71,0,4.9-2.2,4.9-4.9,0-2.7-2.19-4.89-4.9-4.9h-67.85V16.28c-.12-2.71-2.41-4.81-5.12-4.69-2.54,.11-4.58,2.15-4.69,4.69V84.13H93.53V16.28c0-2.71-2.2-4.9-4.9-4.9-2.7,0-4.89,2.19-4.9,4.9V84.13H15.88c-2.71,0-4.9,2.2-4.9,4.9,0,2.7,2.19,4.89,4.9,4.9H83.73v67.65H15.88c-2.71,.12-4.81,2.41-4.69,5.12,.11,2.54,2.15,4.58,4.69,4.69H83.73v67.85c0,2.7,2.2,4.89,4.9,4.9Zm4.9-150.21h67.65v67.65H93.53V93.93Zm33.83,6.02c-15.36-.02-27.83,12.41-27.85,27.77-.02,15.36,12.41,27.83,27.77,27.85,15.36,.02,27.83-12.41,27.85-27.77,0-.01,0-.02,0-.04-.02-15.34-12.43-27.77-27.77-27.81Zm0,45.74c-9.9,0-17.93-8.02-17.94-17.92,0-9.9,8.02-17.93,17.92-17.94,9.9,0,17.93,8.02,17.94,17.92h0c-.02,9.9-8.03,17.92-17.92,17.94Zm0,88.31c15.36,0,27.81-12.45,27.81-27.81,0-15.36-12.45-27.81-27.81-27.81-15.36,0-27.81,12.45-27.81,27.81h0c.02,15.35,12.46,27.79,27.81,27.81Zm0-45.73c9.9,0,17.93,8.03,17.93,17.93s-8.03,17.93-17.93,17.93-17.93-8.03-17.93-17.93h0c.01-9.9,8.03-17.92,17.93-17.93ZM234.27,49.59c0-15.36-12.45-27.82-27.81-27.83-15.36,0-27.82,12.45-27.83,27.81,0,15.36,12.45,27.82,27.81,27.83h0c15.36-.02,27.8-12.46,27.82-27.82h0Zm-45.74,0c0-9.9,8.02-17.93,17.92-17.94,9.9,0,17.93,8.02,17.94,17.92,0,9.9-8.02,17.93-17.92,17.94,0,0-.01,0-.02,0-9.9-.01-17.91-8.03-17.92-17.93h0Zm40.56,62.48l-15.71,15.71,15.71,15.71c1.91,1.91,1.92,5.01,0,6.93s-5.01,1.92-6.93,0l-15.72-15.72-15.74,15.71c-1.91,1.91-5.02,1.91-6.93,0s-1.91-5.02,0-6.93l15.71-15.71-15.71-15.71c-1.91-1.91-1.92-5.01,0-6.93,1.91-1.91,5.01-1.92,6.93,0h0l15.74,15.75,15.72-15.71c1.91-1.91,5.02-1.91,6.93,0,1.91,1.91,1.91,5.02,0,6.93h0v-.03ZM71.68,190.52l-15.71,15.67,15.71,15.71c1.91,1.91,1.92,5.01,0,6.93-1.91,1.91-5.01,1.92-6.93,0h0l-15.72-15.71-15.71,15.71c-1.91,1.91-5.02,1.91-6.93,0s-1.91-5.02,0-6.93l15.71-15.71-15.71-15.71c-1.91-1.91-1.92-5.01,0-6.93s5.01-1.92,6.93,0l15.71,15.72,15.72-15.72c1.91-1.91,5.02-1.91,6.93,0,1.91,1.91,1.91,5.02,0,6.93h0v.05Zm-45.28-47.05l15.71-15.71-15.71-15.71c-1.91-1.91-1.92-5.01,0-6.93,1.91-1.91,5.01-1.92,6.93,0h0l15.71,15.75,15.72-15.71c1.91-1.91,5.02-1.91,6.93,0,1.91,1.91,1.91,5.02,0,6.93h0l-15.71,15.67,15.71,15.71c1.91,1.91,1.92,5.01,0,6.93-1.91,1.91-5.01,1.92-6.93,0h0l-15.72-15.72-15.71,15.72c-1.91,1.91-5.02,1.91-6.93,0s-1.91-5.02,0-6.93Z"/>
</svg>